{"title":"Dhat Teri Ki  - Badshah - The Don 2016 - Jeet - Nusrat Faria - S","uid":15135902,"size":78895565,"categoryP":"video","categoryS":"music_videos","magnet":"?xt=urn:btih:fb02049a9e112cb4fb60212087476b5407197a2b&amp;dn=Dhat+Teri+Ki++-+Badshah+-+The+Don+2016+-+Jeet+-+Nusrat+Faria+-+S&amp;tr=udp%3A%2F%2Ftracker.leechers-paradise.org%3A6969&amp;tr=udp%3A%2F%2Fzer0day.ch%3A1337&amp;tr=udp%3A%2F%2Fopen.demonii.com%3A1337&amp;tr=udp%3A%2F%2Ftracker.coppersurfer.tk%3A6969&amp;tr=udp%3A%2F%2Fexodus.desync.com%3A6969","seeders":0,"leechers":1,"uploader":"MdTaRa","files":1,"time":1467175786,"description":"======================================================================================\r\nGeneral\r\nComplete name               : Dhat Teri Ki  - Badshah - The Don 2016 - Jeet - Nusrat Faria - Shraddha Das - Full HD 1080p.mkv\r\nFormat                      : Matroska\r\nFormat version              : Version 4 / Version 2\r\nFile size                   : 75.2 MiB\r\nDuration                    : 3mn 30s\r\nOverall bit rate mode       : Variable\r\nOverall bit rate            : 3 000 Kbps\r\n=====================================================================================\r\nVideo\r\nID                          : 1\r\nFormat                      : AVC\r\nFormat/Info                 : Advanced Video Codec\r\nFormat profile              :   \r\nFormat settings, CABAC      : Yes\r\nFormat settings, ReFrames   : 3 frames\r\nCodec ID                    : V_MPEG4/ISO/AVC\r\nDuration                    : 3mn 30s\r\nBit rate mode               : Variable\r\nBit rate                    : 2 902 Kbps\r\nMaximum bit rate            : 40.0 Mbps\r\nWidth                       : 1 920 pixels\r\nHeight                      : 816 pixels\r\nDisplay aspect ratio        : 2.35:1\r\nFrame rate mode             : Constant\r\nFrame rate                  : 24.000 fps\r\nColor space                 : YUV\r\nChroma subsampling          : 4:2:0\r\nBit depth                   : 8 bits\r\nScan type                   : Progressive\r\nBits/(Pixel*Frame)          : 0.077\r\nStream size                 : 72.8 MiB (97%)\r\nTitle                       : = __ TaRa ~ DDR __ =\r\nLanguage                    : Bengali\r\nDefault                     : Yes\r\nForced                      : No\r\n====================================================================================\r\nAudio\r\nID                          : 2\r\nFormat                      : AAC\r\nFormat/Info                 : Advanced Audio Codec\r\nFormat profile              : LC\r\nCodec ID                    : A_AAC\r\nDuration                    : 3mn 30s\r\nBit rate                    : 96.0 Kbps\r\nChannel(s)                  : 2 channels\r\nChannel positions           : Front: L R\r\nSampling rate               : 44.1 KHz\r\nFrame rate                  : 43.066 fps (1024 spf)\r\nCompression mode            : Lossy\r\nDelay relative to video     : 10ms\r\nStream size                 : 2.40 MiB (3%)\r\nTitle                       : = __ TaRa ~ DDR __ =\r\nLanguage                    : Bengali\r\nDefault                     : Yes\r\nForced                      : No\r\n=================================================================================== \nhttp://picoolio.net/image/I8nX","torrent":{"xt":"urn:btih:fb02049a9e112cb4fb60212087476b5407197a2b","amp;dn":"Dhat+Teri+Ki++-+Badshah+-+The+Don+2016+-+Jeet+-+Nusrat+Faria+-+S","amp;tr":["udp%3A%2F%2Ftracker.leechers-paradise.org%3A6969","udp%3A%2F%2Fzer0day.ch%3A1337","udp%3A%2F%2Fopen.demonii.com%3A1337","udp%3A%2F%2Ftracker.coppersurfer.tk%3A6969","udp%3A%2F%2Fexodus.desync.com%3A6969"],"infoHash":"fb02049a9e112cb4fb60212087476b5407197a2b","infoHashBuffer":{"type":"Buffer","data":[251,2,4,154,158,17,44,180,251,96,33,32,135,71,107,84,7,25,122,43]},"announce":[],"urlList":[]}}